<?xml version="1.0" standalone="no"?>
<svg viewBox="0 0 200 200" xmlns="http://www.w3.org/2000/svg">
  <path fill="#FF0066" d="M44.2,-69C57.5,-60.1,68.8,-48.4,75.6,-34.3C82.5,-20.2,84.8,-3.8,82.8,12C80.7,27.9,74.2,43.3,63.9,55.7C53.6,68,39.5,77.2,23.8,82.4C8.1,87.6,-9.1,88.7,-21.5,81.4C-33.9,74,-41.4,58.2,-49.4,45C-57.4,31.8,-65.9,21.2,-69.9,8.7C-73.9,-3.9,-73.3,-18.6,-66.6,-29.2C-59.9,-39.8,-47,-46.4,-34.8,-55.8C-22.7,-65.2,-11.4,-77.3,2,-80.5C15.4,-83.6,30.8,-77.8,44.2,-69Z" transform="translate(100 100)" />
</svg>
